<svg width="1440" height="1024" viewBox="0 0 1440 1024" fill="none" xmlns="http://www.w3.org/2000/svg">
<g clip-path="url(#clip0)">
<path d="M1440 0H0V1024H1440V0Z" fill="#E74401"/>
<path d="M3.05176e-05 705.628C114.09 692.709 211.868 614.704 300.35 531.744C381.036 456.094 460.43 367.444 484.24 251.614C506.591 142.881 430.159 42.0943 423.912 -69.3464C416.857 -195.211 500.077 -329.446 445.516 -439.23C391.201 -548.519 261.773 -568.834 156.669 -607.078C49.183 -646.19 -65.349 -707.954 -171.271 -663.661C-276.228 -619.772 -334.559 -493.405 -385.714 -380.272C-428.716 -285.169 -425.604 -177.673 -438.891 -71.7972C-452.163 33.9581 -478.874 135.508 -463.675 240.928C-444.835 371.597 -428.728 516.889 -341.396 604.414C-251.326 694.683 -119.44 719.153 3.05176e-05 705.628Z" fill="#B93601"/>
<path d="M1440 1641.68C1546.57 1650.44 1655.55 1630.35 1747.34 1568.12C1840.84 1504.73 1902.88 1400.23 1955.77 1292C2012.36 1176.17 2061.7 1054.6 2062.99 922.086C2064.41 776.029 2051.65 614.064 1963.4 507.989C1875.77 402.678 1730.56 412.703 1607.56 374.706C1487.49 337.612 1372.72 264.546 1249.96 287.595C1120.09 311.978 975.212 372.685 913.577 505.005C852.049 637.093 957.556 794.198 944.678 942.971C932.691 1081.46 793.95 1206.77 841.746 1334.86C889.255 1462.17 1049.1 1462.99 1159.93 1519.83C1252.94 1567.53 1338.25 1633.32 1440 1641.68Z" fill="#FE5B18"/>
</g>
<defs>
<clipPath id="clip0">
<rect width="1440" height="1024" fill="white"/>
</clipPath>
</defs>
</svg>
