<svg width="34" height="34" viewBox="0 0 34 34" fill="none" xmlns="http://www.w3.org/2000/svg">
<path d="M17 0C7.61135 0 0 7.61135 0 17C0 26.3886 7.61135 34 17 34C26.3886 34 34 26.3886 34 17C34 7.61135 26.3886 0 17 0ZM17 31.1666C9.17615 31.1666 2.83336 24.8239 2.83336 17C2.83336 9.17615 9.17615 2.83336 17 2.83336C24.8239 2.83336 31.1666 9.17615 31.1666 17C31.1666 24.8239 24.8239 31.1666 17 31.1666Z" fill="#510F00"/>
<path d="M24.0834 9.91666H9.91664C9.13425 9.91666 8.5 10.5509 8.5 11.3333C8.5 12.1157 9.13425 12.7499 9.91664 12.7499H24.0833C24.8657 12.7499 25.4999 12.1157 25.4999 11.3333C25.5 10.551 24.8658 9.91666 24.0834 9.91666Z" fill="#510F00"/>
<path d="M24.0834 15.5833H9.91664C9.13425 15.5833 8.5 16.2176 8.5 17C8.5 17.7824 9.13425 18.4166 9.91664 18.4166H24.0833C24.8657 18.4166 25.4999 17.7824 25.4999 17C25.4999 16.2176 24.8658 15.5833 24.0834 15.5833Z" fill="#510F00"/>
<path d="M24.0834 21.25H9.91664C9.13425 21.25 8.5 21.8842 8.5 22.6666C8.5 23.449 9.13425 24.0833 9.91664 24.0833H24.0833C24.8657 24.0833 25.4999 23.449 25.4999 22.6666C25.5 21.8842 24.8658 21.25 24.0834 21.25Z" fill="#510F00"/>
</svg>
